<?xml version="1.0" standalone="no"?>
<!DOCTYPE svg PUBLIC "-//W3C//DTD SVG 20010904//EN"
 "http://www.w3.org/TR/2001/REC-SVG-20010904/DTD/svg10.dtd">
<svg version="1.0" xmlns="http://www.w3.org/2000/svg"
 width="476.000000pt" height="476.000000pt" viewBox="0 0 476.000000 476.000000"
 preserveAspectRatio="xMidYMid meet">
<metadata>
Created by potrace 1.11, written by Peter Selinger 2001-2013
</metadata>
<g transform="translate(0.000000,476.000000) scale(0.100000,-0.100000)"
fill="#000000" stroke="none">
<path d="M1218 3965 c-2 -2 -46 -6 -99 -10 -53 -3 -110 -8 -125 -10 -16 -2
-58 -6 -94 -10 -36 -3 -76 -8 -90 -10 -14 -2 -49 -7 -79 -10 -30 -4 -63 -8
-74 -11 -10 -2 -45 -6 -76 -9 -31 -4 -63 -8 -71 -10 -14 -4 -66 -12 -127 -19
-30 -4 -123 -19 -135 -22 -5 -1 -14 -2 -21 -3 -10 -1 -12 -252 -12 -1267 l0
-1266 35 6 c19 3 44 8 55 10 11 2 40 7 65 11 25 4 52 9 60 10 8 2 38 6 65 9
28 4 64 9 80 11 17 3 50 7 75 9 25 3 65 8 90 11 46 5 111 11 240 21 101 8 488
8 575 0 39 -4 108 -11 155 -17 47 -6 96 -12 110 -14 53 -5 239 -49 297 -69 74
-26 149 -64 181 -91 18 -15 36 -25 39 -21 3 3 6 561 6 1239 0 1160 -2 1235
-18 1267 -42 82 -166 164 -306 205 -71 20 -94 24 -264 51 -40 6 -531 14 -537
9z"/>
<path d="M3347 3904 c-1 -1 -51 -4 -112 -8 -60 -3 -121 -8 -135 -10 -14 -3
-45 -7 -69 -10 -54 -7 -71 -20 -71 -57 0 -44 25 -52 133 -40 226 27 586 29
822 7 28 -3 88 -8 135 -11 47 -4 92 -8 100 -10 50 -13 162 -15 176 -5 17 15
19 64 2 78 -16 12 -101 26 -233 37 -38 3 -90 8 -115 10 -146 14 -621 28 -633
19z"/>
<path d="M2702 3801 c-60 -21 -142 -56 -181 -80 -61 -36 -71 -46 -71 -69 0
-32 16 -52 41 -52 10 0 56 20 103 45 47 24 126 57 176 72 77 23 91 30 97 51 3
14 2 32 -4 40 -20 33 -49 31 -161 -7z"/>
<path d="M4444 3813 c-20 -21 -18 -70 4 -82 29 -15 99 -16 116 -2 21 18 20 54
-1 74 -25 22 -100 28 -119 10z"/>
<path d="M3327 3683 c-1 -1 -45 -4 -97 -7 -52 -3 -115 -8 -140 -11 -41 -5 -59
-8 -140 -21 -138 -23 -299 -73 -316 -99 -18 -27 -7 -64 21 -71 12 -3 69 8 126
24 90 26 222 51 349 67 164 21 588 20 800 0 19 -2 71 -6 115 -10 44 -3 91 -8
105 -10 14 -2 50 -6 80 -10 81 -9 123 -15 147 -19 36 -7 137 -19 156 -18 48 2
64 61 25 86 -25 15 -55 22 -138 31 -30 3 -62 8 -70 10 -8 2 -44 7 -80 10 -36
4 -72 8 -80 10 -8 2 -53 6 -100 10 -47 3 -96 8 -110 10 -83 12 -644 28 -653
18z"/>
<path d="M2471 3471 c-26 -20 -26 -68 0 -84 39 -24 93 19 82 64 -8 29 -55 40
-82 20z"/>
<path d="M3357 3464 c-1 -1 -51 -4 -112 -8 -319 -18 -588 -85 -745 -186 -40
-25 -50 -38 -50 -59 0 -31 16 -51 41 -51 9 0 56 20 104 45 164 84 360 128 670
150 71 6 389 6 493 1 97 -5 251 -17 282 -21 14 -2 57 -6 95 -10 39 -3 81 -8
95 -10 14 -2 50 -6 80 -10 30 -4 66 -8 80 -10 14 -2 43 -6 65 -10 23 -3 51 -7
63 -10 27 -5 62 26 62 53 0 30 -31 49 -90 57 -30 4 -62 9 -71 10 -18 4 -110
16 -154 20 -16 2 -73 8 -125 14 -234 25 -360 33 -591 35 -104 1 -190 1 -192 0z"/>
<path d="M3327 3243 c-1 0 -47 -4 -102 -7 -141 -9 -152 -12 -164 -47 -9 -25
-7 -33 9 -49 16 -16 30 -19 68 -15 216 21 604 21 786 -1 22 -2 48 -2 58 2 48
15 42 88 -9 98 -62 12 -635 30 -646 19z"/>
<path d="M4119 3193 c-20 -23 -22 -58 -4 -73 8 -6 78 -20 157 -30 79 -11 163
-22 188 -26 88 -14 120 -3 120 42 0 31 -33 51 -95 60 -27 3 -58 8 -69 10 -10
2 -44 6 -75 10 -31 3 -63 8 -71 9 -8 2 -42 6 -75 10 -52 5 -63 3 -76 -12z"/>
<path d="M2865 3188 c-154 -37 -295 -91 -375 -144 -42 -28 -54 -66 -28 -92 20
-20 44 -14 124 29 82 43 219 92 294 104 63 10 90 29 90 64 0 42 -36 55 -105
39z"/>
<path d="M3373 3018 c-30 -14 -39 -55 -17 -79 14 -16 31 -19 101 -18 90 1 113
12 113 53 0 13 -7 29 -16 37 -19 15 -150 20 -181 7z"/>
<path d="M3167 3014 c-1 -1 -31 -5 -67 -9 -36 -3 -72 -8 -80 -10 -8 -2 -35 -7
-60 -10 -25 -3 -61 -10 -80 -15 -19 -5 -46 -11 -60 -14 -90 -17 -246 -78 -322
-128 -38 -24 -48 -36 -48 -57 0 -58 43 -66 113 -21 26 17 53 30 60 30 7 0 17
4 23 8 15 15 124 51 214 72 85 19 171 33 285 45 80 8 93 13 105 35 18 33 -3
67 -45 72 -19 2 -37 3 -38 2z"/>
<path d="M3673 3009 c-17 -18 -16 -64 1 -78 8 -7 48 -14 88 -16 103 -6 237
-15 278 -20 19 -2 62 -7 95 -10 115 -11 316 -37 386 -50 25 -5 59 23 59 49 0
34 -28 53 -90 61 -30 4 -62 9 -71 10 -9 2 -40 6 -70 10 -30 3 -65 8 -79 10
-36 6 -103 13 -195 21 -44 3 -87 8 -96 9 -9 2 -79 6 -155 10 -107 5 -142 4
-151 -6z"/>
<path d="M3327 2804 c-1 -1 -49 -5 -107 -9 -57 -4 -112 -8 -121 -10 -9 -2 -40
-6 -69 -10 -29 -4 -62 -9 -74 -11 -92 -17 -135 -27 -162 -35 -17 -5 -40 -11
-50 -13 -36 -7 -139 -49 -192 -78 -91 -49 -102 -58 -102 -87 0 -56 47 -67 109
-25 109 71 348 137 581 159 213 20 539 20 780 0 109 -9 173 -15 215 -20 22 -2
67 -7 100 -10 33 -4 68 -9 78 -12 25 -7 57 25 57 57 0 33 -25 46 -105 55 -32
4 -66 8 -75 10 -8 1 -55 6 -104 10 -50 4 -98 9 -109 11 -53 10 -641 26 -650
18z"/>
<path d="M4476 2704 c-38 -37 -2 -97 52 -88 36 7 52 22 52 49 0 47 -70 73
-104 39z"/>
<path d="M3377 2585 c-1 -1 -56 -5 -122 -9 -100 -5 -123 -9 -139 -26 -16 -16
-18 -25 -10 -47 l9 -28 385 -1 c212 -1 401 -4 420 -7 19 -3 73 -8 119 -12 47
-4 92 -8 100 -10 9 -1 45 -6 81 -10 36 -3 76 -8 90 -10 14 -2 50 -6 80 -10 69
-7 97 -21 102 -50 6 -29 -6 -61 -26 -68 -9 -3 -72 1 -141 10 -138 17 -155 13
-155 -37 0 -36 17 -49 71 -56 24 -3 55 -7 69 -10 14 -2 57 -7 95 -10 59 -4 75
-2 103 15 47 30 68 72 71 138 2 67 -20 112 -69 141 -64 39 -583 91 -958 96
-95 1 -173 2 -175 1z"/>
<path d="M2935 2539 c-180 -31 -321 -80 -437 -151 -38 -24 -48 -35 -48 -57 0
-62 35 -65 135 -12 104 55 206 89 355 117 49 9 61 16 69 37 19 51 -11 77 -74
66z"/>
<path d="M3367 2364 c-1 -1 -58 -5 -127 -9 -68 -4 -127 -8 -130 -10 -3 -1 -34
-6 -70 -9 -79 -8 -270 -50 -345 -76 -73 -25 -199 -88 -224 -112 -35 -32 -22
-88 20 -88 10 0 57 20 106 44 104 53 183 80 313 106 181 36 297 45 605 45 236
0 445 -8 501 -19 30 -6 64 20 64 49 0 31 -25 55 -58 56 -15 1 -40 2 -57 4
-106 11 -589 26 -598 19z"/>
<path d="M3377 2144 c-1 -1 -51 -4 -112 -8 -144 -8 -268 -23 -400 -50 -116
-23 -274 -82 -359 -133 -49 -29 -67 -63 -49 -92 20 -31 58 -25 133 21 97 59
364 127 570 145 176 15 712 8 880 -11 19 -3 62 -7 95 -11 33 -3 71 -8 85 -10
14 -2 52 -6 85 -10 33 -4 69 -9 80 -10 88 -13 122 -18 138 -21 23 -4 57 30 57
56 0 39 -38 51 -232 74 -27 3 -69 9 -95 12 -27 3 -59 7 -74 10 -14 2 -59 6
-100 10 -40 3 -90 7 -109 9 -142 12 -584 27 -593 19z"/>
<path d="M3367 1924 c-1 -1 -54 -5 -117 -8 -63 -4 -146 -11 -185 -17 -122 -17
-129 -19 -160 -24 -16 -4 -64 -15 -105 -25 -156 -41 -187 -59 -176 -105 10
-40 41 -45 116 -20 58 21 212 55 310 70 143 21 619 28 840 11 184 -13 190 -14
234 -20 22 -3 68 -8 101 -11 33 -4 71 -8 85 -10 14 -2 45 -6 70 -10 25 -3 63
-8 85 -12 71 -11 80 -11 98 5 9 8 17 26 17 38 0 42 -25 51 -235 79 -16 2 -56
7 -88 10 -32 4 -67 8 -78 10 -11 2 -58 7 -105 10 -46 3 -94 8 -105 10 -50 10
-594 26 -602 19z"/>
<path d="M2463 1705 c-32 -35 -2 -96 43 -87 45 8 65 71 30 94 -18 12 -60 8
-73 -7z"/>
<path d="M3452 1699 c-31 -12 -40 -56 -16 -79 17 -16 45 -19 232 -24 118 -4
217 -7 220 -7 25 -4 40 4 51 27 19 42 -8 74 -62 75 -23 1 -61 3 -85 5 -95 8
-319 11 -340 3z"/>
<path d="M3197 1694 c-1 -1 -33 -5 -72 -8 -97 -10 -244 -35 -325 -56 -121 -31
-288 -103 -329 -142 -37 -33 -22 -88 23 -88 21 0 36 7 108 48 110 63 345 120
563 137 167 13 168 13 168 60 0 39 -18 50 -79 50 -30 1 -56 0 -57 -1z"/>
<path d="M4052 1664 c-27 -19 -30 -69 -4 -83 9 -5 46 -12 82 -16 36 -3 76 -8
90 -10 14 -2 51 -7 83 -10 32 -4 66 -8 76 -10 18 -3 109 -16 146 -20 27 -3 55
23 55 51 0 31 -33 51 -100 59 -30 4 -63 9 -74 11 -10 2 -44 6 -75 10 -31 3
-64 8 -74 10 -10 2 -48 6 -85 9 -37 3 -74 8 -82 11 -9 2 -26 -3 -38 -12z"/>
<path d="M3367 1484 c-1 -1 -51 -5 -111 -8 -60 -4 -128 -9 -150 -12 -198 -24
-216 -30 -216 -73 0 -43 21 -54 87 -47 32 3 68 8 81 11 136 26 770 27 967 0
17 -2 57 -6 90 -10 33 -3 76 -8 95 -10 19 -2 58 -7 85 -10 97 -11 140 -17 175
-24 67 -15 110 3 110 45 0 40 -30 52 -170 69 -25 3 -56 8 -70 10 -14 2 -47 7
-75 10 -27 3 -66 7 -85 10 -19 2 -69 7 -110 11 -41 3 -88 8 -105 10 -82 10
-589 25 -598 18z"/>
<path d="M2689 1376 c-66 -23 -182 -78 -210 -99 -9 -7 -21 -22 -28 -35 -10
-19 -8 -25 13 -47 28 -28 32 -27 116 22 30 17 90 43 133 59 79 27 105 52 91
88 -12 31 -49 35 -115 12z"/>
<path d="M219 1122 c-4 -21 -5 -69 -1 -79 3 -9 178 -11 709 -11 387 0 707 -3
710 -6 4 -3 6 -85 6 -181 l0 -175 36 22 c20 12 56 35 80 50 l44 28 36 -22 c20
-12 56 -34 81 -50 l45 -27 3 179 2 180 33 1 c17 0 97 0 176 0 80 0 150 4 156
9 6 5 9 27 7 49 l-4 39 -1059 0 c-582 0 -1060 -3 -1060 -6z"/>
<path d="M2451 1108 c-4 -11 -5 -33 -3 -48 l4 -28 1059 0 c582 0 1060 3 1060
6 4 21 5 69 2 79 -4 9 -259 12 -1059 11 -1049 0 -1055 0 -1063 -20z"/>
</g>
</svg>
